<svg width="16" height="20" viewBox="0 0 16 20" fill="none" xmlns="http://www.w3.org/2000/svg">
<path d="M15.4572 6.63066C15.3649 6.41539 15.1531 6.27586 14.9189 6.27586H10.8461L13.5602 0.847979C13.6509 0.666414 13.6413 0.45063 13.5345 0.277894C13.4278 0.105118 13.2391 0 13.036 0L4.87701 0.000468755C4.63743 0.000468755 4.422 0.14633 4.33302 0.368793L0.567348 9.78222C0.495121 9.96273 0.517152 10.1673 0.626177 10.3283C0.735163 10.4893 0.916923 10.5858 1.11138 10.5858H5.89448L2.45022 19.1964C2.34585 19.4573 2.44135 19.7556 2.678 19.9073C2.77515 19.9696 2.88495 20 2.99402 20C3.15027 20 3.30508 19.9376 3.41906 19.8176L15.3437 7.26532C15.5049 7.09551 15.5497 6.8459 15.4572 6.63066Z" fill="#4888FF" fill-opacity="0.5"/>
</svg>
